<?xml version="1.0" standalone="no"?>
<!DOCTYPE svg PUBLIC "-//W3C//DTD SVG 20010904//EN"
 "http://www.w3.org/TR/2001/REC-SVG-20010904/DTD/svg10.dtd">
<svg version="1.0" xmlns="http://www.w3.org/2000/svg"
 width="166.000000pt" height="97.000000pt" viewBox="0 0 166.000000 97.000000"
 preserveAspectRatio="xMidYMid meet">
<metadata>
Created by potrace 1.15, written by Peter Selinger 2001-2017
</metadata>
<g transform="translate(0.000000,97.000000) scale(0.100000,-0.100000)"
fill="#000000" stroke="none">
<path d="M315 795 c-16 -15 -25 -36 -25 -55 0 -36 38 -80 69 -80 35 0 69 22
81 51 33 78 -65 144 -125 84z"/>
<path d="M772 685 c-18 -8 -45 -24 -59 -35 -20 -15 -34 -18 -64 -14 -36 6 -39
5 -39 -18 0 -13 6 -33 14 -43 10 -14 11 -26 5 -43 -17 -44 -10 -125 15 -177
41 -90 120 -138 221 -138 59 0 134 27 150 53 3 5 28 10 55 10 59 0 69 13 42
50 -19 26 -20 33 -10 82 31 147 -88 288 -242 288 -30 -1 -70 -7 -88 -15z m184
-24 c85 -39 146 -150 129 -239 -9 -48 -45 -112 -62 -112 -27 0 -161 68 -214
108 -30 22 -75 62 -101 89 l-48 48 20 32 c19 32 79 76 116 86 44 11 121 6 160
-12z m-123 -284 c31 -21 81 -48 110 -59 28 -12 56 -25 60 -28 5 -4 -13 -18
-39 -30 -150 -73 -324 32 -324 194 0 81 6 82 74 19 34 -32 87 -75 119 -96z"/>
<path d="M1292 325 c-64 -28 -77 -117 -26 -168 30 -30 61 -37 104 -23 89 30
98 151 15 191 -40 18 -51 18 -93 0z"/>
</g>
</svg>
